<svg version="1.1" id="Layer_1" xmlns="http://www.w3.org/2000/svg" xmlns:xlink="http://www.w3.org/1999/xlink" x="0px" y="0px"
	 width="100%" viewBox="0 0 272 200" enable-background="new 0 0 272 200" xml:space="preserve">
<path fill="#0A0619" opacity="1.000000" stroke="none" 
	d="
M148.000000,201.000000 
	C99.833336,201.000000 52.166584,200.965103 4.500215,201.083282 
	C1.517223,201.090668 0.912635,200.482422 0.917552,197.499878 
	C1.025536,132.000061 1.000000,66.500015 1.000000,1.000010 
	C90.333321,1.000000 179.666672,1.025147 268.999847,0.904204 
	C272.423981,0.899568 273.103760,1.575345 273.096710,5.000162 
	C272.965057,68.999893 272.965088,133.000031 273.096710,196.999756 
	C273.103760,200.424377 272.425842,201.111526 268.999695,201.098450 
	C228.833588,200.944977 188.666687,201.000000 148.000000,201.000000 
z"/>
<path fill="#F8F8F8" opacity="1.000000" stroke="none" 
	d="
M143.045197,101.014244 
	C142.742569,112.514175 137.986160,121.022621 128.003815,125.920593 
	C119.485130,130.100403 110.854858,129.322815 102.913925,124.147285 
	C92.244789,117.193642 88.216217,102.817734 93.208801,90.566414 
	C97.655754,79.654030 109.549683,73.068436 121.471306,74.917664 
	C133.430573,76.772720 142.355209,87.393456 143.045197,101.014244 
z"/>
<path fill="#F9F8F9" opacity="1.000000" stroke="none" 
	d="
M150.913788,120.893944 
	C150.913803,106.420761 151.036911,92.429451 150.828400,78.443092 
	C150.775421,74.889900 151.810379,73.915718 155.282928,74.072517 
	C161.598724,74.357704 167.945984,73.936844 174.262848,74.209900 
	C188.371155,74.819771 196.714539,86.450096 191.897217,98.770828 
	C189.142838,105.815437 183.502441,109.335190 176.155334,109.980850 
	C172.021042,110.344162 167.834015,110.242996 163.675781,110.142639 
	C161.512924,110.090439 160.745239,110.817734 160.816055,112.977501 
	C160.941467,116.803787 160.533691,120.669891 160.926300,124.459526 
	C161.433044,129.350830 158.180847,128.150635 155.545868,128.348602 
	C152.591278,128.570618 150.134186,128.464279 150.887466,124.370628 
	C151.065323,123.404083 150.913803,122.376930 150.913788,120.893944 
z"/>
<path fill="#E05A8C" opacity="1.000000" stroke="none" 
	d="
M184.563995,61.060722 
	C187.464310,62.253841 190.864716,62.419205 190.986969,66.635872 
	C189.224884,68.717911 187.027786,68.783630 184.861313,68.787155 
	C173.548340,68.805588 162.234985,68.947769 150.465454,68.843857 
	C147.348846,67.541824 144.689102,66.131721 141.919220,64.663216 
	C143.330276,62.445999 145.541901,62.073967 147.582840,60.871666 
	C159.987595,61.665665 172.058563,61.154381 184.563995,61.060722 
z"/>
<path fill="#E05B8E" opacity="1.000000" stroke="none" 
	d="
M91.518509,67.334412 
	C90.217239,62.732944 94.276878,62.788910 96.641953,61.038368 
	C107.394936,61.454090 117.798508,61.138641 128.199692,61.182148 
	C130.516312,61.191833 132.822495,61.206509 135.511169,61.780945 
	C137.004318,63.618332 139.480881,62.530624 140.585373,64.664970 
	C138.771759,65.748375 136.889862,66.872574 134.676956,68.058090 
	C124.466034,69.770882 114.514267,68.594826 104.598923,68.798546 
	C100.359200,68.885643 95.961449,69.716133 91.518509,67.334412 
z"/>
<path fill="#59A1EA" opacity="1.000000" stroke="none" 
	d="
M165.245270,136.704224 
	C165.009750,136.895355 164.671860,137.257217 164.441986,137.349060 
	C149.054123,137.487457 133.895859,137.670776 118.267517,137.399597 
	C117.796394,137.451706 117.335342,137.287735 117.164742,137.112335 
	C116.839142,136.798828 116.684143,136.660721 116.346619,136.270325 
	C115.287750,132.813034 116.304062,131.609604 119.808273,131.650787 
	C133.966766,131.817184 148.128601,131.761871 162.288589,131.681152 
	C164.838364,131.666626 166.615601,131.989441 165.932144,135.578262 
	C165.717285,136.184998 165.599030,136.349030 165.245270,136.704224 
z"/>
<path fill="#E25780" opacity="1.000000" stroke="none" 
	d="
M135.830444,61.675125 
	C125.892998,64.113197 115.761124,62.627972 105.689194,62.903671 
	C102.899681,62.980030 99.740555,64.253525 97.103485,61.391434 
	C99.364899,59.579124 101.733559,58.155010 104.442116,56.623993 
	C111.570892,56.149471 118.366676,56.331741 125.573868,56.166893 
	C129.243881,57.829407 132.499313,59.586433 135.830444,61.675125 
z"/>
<path fill="#E35781" opacity="1.000000" stroke="none" 
	d="
M184.805573,60.731655 
	C184.240677,62.533279 182.936371,63.002262 181.319290,62.998714 
	C171.060669,62.976219 160.802017,62.980362 150.543365,62.966774 
	C149.501312,62.965393 148.581070,62.691032 148.035034,61.197655 
	C149.985214,59.508797 152.041534,58.223862 154.439682,56.910576 
	C161.958618,55.698502 169.170898,56.240540 176.826767,56.426231 
	C179.721039,57.758846 182.164764,59.107533 184.805573,60.731655 
z"/>
<path fill="#DD5D98" opacity="1.000000" stroke="none" 
	d="
M91.093117,67.442352 
	C102.978691,67.002007 114.796227,67.021935 126.613556,66.982361 
	C128.962875,66.974495 131.264679,67.070480 133.907410,68.042908 
	C131.756042,70.479668 128.725555,71.250732 125.228615,71.203537 
	C115.100197,71.066856 104.968460,71.114601 94.838684,71.185005 
	C92.442383,71.201668 90.412338,71.167488 91.093117,67.442352 
z"/>
<path fill="#DE5D97" opacity="1.000000" stroke="none" 
	d="
M150.281525,69.229210 
	C150.739868,66.047485 153.131927,67.052605 154.901199,67.040535 
	C166.594818,66.960785 178.289246,66.999725 190.445892,67.000740 
	C191.477524,69.710869 191.151642,71.300705 187.608704,71.228951 
	C177.130829,71.016747 166.645798,71.125336 156.163879,71.174263 
	C154.083481,71.183975 152.222397,70.743126 150.281525,69.229210 
z"/>
<path fill="#4EA3E7" opacity="1.000000" stroke="none" 
	d="
M118.016830,137.686523 
	C118.587151,136.114716 119.888069,136.005051 121.243958,136.005844 
	C134.611954,136.013687 147.979980,136.006256 161.347824,136.054062 
	C162.118774,136.056808 162.888153,136.501205 163.935181,137.090485 
	C162.754440,138.367462 161.296753,139.294052 159.528702,140.338730 
	C147.384308,140.492172 135.549835,140.679031 123.252701,140.409302 
	C121.271439,139.618027 119.754356,138.769684 118.016830,137.686523 
z"/>
<path fill="#E05270" opacity="1.000000" stroke="none" 
	d="
M177.049835,56.186188 
	C176.531342,57.773632 175.255630,58.051945 173.875824,57.974415 
	C167.779404,57.631859 161.620499,58.832336 155.178528,57.059341 
	C157.963196,54.908012 161.206024,53.023926 164.302368,50.923866 
	C166.005890,49.768478 167.339264,50.301842 168.807343,51.190304 
	C171.467407,52.800125 174.149475,54.373581 177.049835,56.186188 
z"/>
<path fill="#44A6E5" opacity="1.000000" stroke="none" 
	d="
M123.004173,140.690079 
	C123.454697,139.347382 124.508469,139.015976 125.727333,139.020294 
	C136.266357,139.057602 146.805435,139.087509 157.344254,139.158279 
	C157.786316,139.161255 158.225845,139.544861 158.942444,140.103973 
	C157.363220,141.590347 155.508118,142.723846 153.320190,143.890945 
	C144.848694,142.981628 136.664261,144.027847 128.094086,143.256058 
	C126.185936,142.404770 124.702881,141.659271 123.004173,140.690079 
z"/>
<path fill="#E15271" opacity="1.000000" stroke="none" 
	d="
M125.765915,55.816605 
	C125.802986,56.922916 125.414742,57.842865 124.512909,57.830517 
	C118.115242,57.742901 111.675819,58.853176 105.054832,56.874329 
	C107.836967,54.620132 110.913139,52.756119 113.936684,50.810345 
	C115.183136,50.008205 116.167282,49.942772 117.497269,50.824780 
	C120.087196,52.542355 122.851372,53.997181 125.765915,55.816605 
z"/>
<path fill="#3AA9E3" opacity="1.000000" stroke="none" 
	d="
M127.867599,143.422974 
	C136.035980,141.389832 144.402420,141.179932 152.877731,143.541916 
	C151.954208,144.622452 150.921051,145.320374 149.573853,146.060852 
	C144.077927,147.302567 138.858032,146.777573 133.251541,146.251373 
	C131.262497,145.268631 129.664352,144.482147 127.867599,143.422974 
z"/>
<path fill="#2EAADD" opacity="1.000000" stroke="none" 
	d="
M133.059799,146.336838 
	C138.032242,144.647629 143.211533,144.396637 148.831314,146.027679 
	C144.087357,151.280655 138.752121,151.402222 133.059799,146.336838 
z"/>
<path fill="#4EA3E7" opacity="1.000000" stroke="none" 
	d="
M116.148445,136.272186 
	C116.427040,136.139648 116.640594,136.319809 116.899452,136.747742 
	C116.707031,136.800079 116.419914,136.663208 116.148445,136.272186 
z"/>
<path fill="#4EA3E7" opacity="1.000000" stroke="none" 
	d="
M165.256622,136.873474 
	C165.108505,136.632233 165.266602,136.411667 165.659790,136.127319 
	C165.989288,136.403519 165.878616,136.680389 165.256622,136.873474 
z"/>
<path fill="#0C081B" opacity="1.000000" stroke="none" 
	d="
M105.288071,91.402428 
	C111.696556,85.058365 119.027695,83.893875 125.211021,87.972954 
	C131.343491,92.018486 134.049866,100.522148 131.357651,107.286209 
	C128.468750,114.544449 121.839378,118.413979 114.366936,117.133614 
	C103.489830,115.269852 97.811127,101.485146 105.288071,91.402428 
z"/>
<path fill="#0E0A1C" opacity="1.000000" stroke="none" 
	d="
M160.948013,85.260628 
	C166.576721,83.479507 172.119873,83.586639 177.555984,85.170479 
	C180.884933,86.140381 182.820419,88.596886 182.882797,92.135796 
	C182.949234,95.904579 180.987228,98.415115 177.412643,99.502716 
	C172.570496,100.975975 167.563385,100.387741 162.613480,100.459198 
	C160.531372,100.489250 160.857193,98.925331 160.850632,97.661255 
	C160.829987,93.685150 160.852875,89.708824 160.948013,85.260628 
z"/>
</svg>