<svg version="1.1" id="Layer_1" xmlns="http://www.w3.org/2000/svg" xmlns:xlink="http://www.w3.org/1999/xlink" x="0px" y="0px"
	 width="100%" viewBox="0 0 272 200" enable-background="new 0 0 272 200" xml:space="preserve">
<path fill="#000001" opacity="1.000000" stroke="none" 
	d="
M150.000000,201.000000 
	C100.000000,201.000000 50.500008,201.000000 1.000007,201.000000 
	C1.000004,134.333344 1.000004,67.666679 1.000002,1.000016 
	C91.666656,1.000010 182.333313,1.000010 273.000000,1.000005 
	C273.000000,67.666649 273.000000,134.333298 273.000000,200.999969 
	C232.166672,201.000000 191.333328,201.000000 150.000000,201.000000 
M145.984680,61.988140 
	C145.984680,61.988140 145.946838,61.908142 145.265579,62.015110 
	C144.176956,62.672886 143.088333,63.330666 141.491440,64.295555 
	C143.020950,65.076035 143.997543,65.574371 145.321243,66.534645 
	C145.857101,66.724731 146.392960,66.914818 147.293701,67.706108 
	C151.316574,68.882111 155.284546,70.758118 159.374512,71.078949 
	C166.470169,71.635567 173.641296,71.229744 180.780777,71.228142 
	C184.180664,71.227379 187.580551,71.228004 190.668884,71.228004 
	C192.341599,65.137390 190.019714,62.212688 185.000000,61.000153 
	C185.000000,61.000153 185.002243,61.001537 184.683701,60.490635 
	C184.140884,60.250156 183.598083,60.009678 182.786697,59.333687 
	C182.465027,59.234482 182.143341,59.135277 181.535568,58.574844 
	C181.026886,58.425121 180.518204,58.275394 179.633194,57.654366 
	C179.089310,57.426350 178.545410,57.198334 177.622986,56.417770 
	C174.750290,54.950893 171.877579,53.484016 168.477295,51.865963 
	C168.138641,51.812428 167.800003,51.758892 167.357788,51.628986 
	C167.357788,51.628986 167.279419,51.526913 167.418808,50.813053 
	C164.067322,52.243885 160.715836,53.674713 156.698059,55.336983 
	C154.760956,56.819771 152.823837,58.302559 150.213257,59.914059 
	C149.806976,60.098766 149.400681,60.283478 148.420914,60.634521 
	C147.583893,61.069981 146.746872,61.505436 145.984680,61.988140 
M131.080093,145.683350 
	C131.456924,145.757095 131.833771,145.830856 132.709518,146.334610 
	C138.099930,151.272644 143.564499,151.363068 149.117508,146.601685 
	C149.728470,146.077820 150.401306,145.626114 151.698135,145.005936 
	C152.792908,144.298096 153.887665,143.590256 155.595901,142.832703 
	C156.395081,142.219788 157.194260,141.606873 157.999893,140.999985 
	C157.999893,140.999985 157.994370,140.993484 158.707779,140.920105 
	C166.666946,136.650513 166.666946,136.650513 165.337082,131.911072 
	C148.931824,131.911072 132.555420,131.911072 116.135544,131.911072 
	C114.816948,138.794159 120.563911,138.876480 124.182037,141.234299 
	C124.182037,141.234299 124.432343,141.130508 124.770012,141.682617 
	C125.162331,141.836441 125.554642,141.990280 126.286751,142.688858 
	C127.796577,143.512161 129.306396,144.335464 130.839508,145.120514 
	C130.839508,145.120514 130.818954,145.142960 131.080093,145.683350 
M129.250122,57.573162 
	C125.509331,55.425461 121.827759,53.161800 117.990845,51.202324 
	C116.872948,50.631428 115.054108,50.408550 114.003464,50.928745 
	C111.207855,52.312912 108.655670,54.188732 105.303780,56.007286 
	C101.773643,58.294918 98.243500,60.582550 93.919983,62.809521 
	C88.795029,64.234428 91.632240,67.968788 91.098343,71.227364 
	C100.702446,71.227364 109.853554,70.783791 118.940338,71.358055 
	C127.236740,71.882378 134.307404,69.769463 140.822678,64.154045 
	C138.189972,62.807823 135.576996,61.471687 132.564835,59.602535 
	C131.585724,59.098743 130.606628,58.594948 129.250122,57.573162 
M142.966110,99.651459 
	C142.147049,86.679581 132.891754,76.398216 120.580925,74.784584 
	C108.028381,73.139267 96.493454,80.560654 92.495430,92.854347 
	C88.423691,105.374702 93.579575,119.182182 104.548462,125.132462 
	C122.786148,135.025833 142.762817,122.266121 142.966110,99.651459 
M150.881332,111.498192 
	C150.881332,116.973267 150.881332,122.448349 150.881332,128.134140 
	C154.258148,128.134140 157.353271,128.134140 160.863159,128.134140 
	C160.863159,124.961830 160.863159,122.009483 160.863159,119.057129 
	C160.863159,116.160019 160.863159,113.262901 160.863159,110.007385 
	C166.609207,110.007385 171.619339,110.359367 176.562149,109.932320 
	C186.129349,109.105721 192.711899,102.163651 193.047440,93.124077 
	C193.410995,83.329567 187.887527,75.839249 177.962402,74.823853 
	C169.151962,73.922493 160.176437,74.634781 150.883896,74.634781 
	C150.883896,86.616631 150.883896,98.557831 150.881332,111.498192 
z"/>
<path fill="#F7F7F8" opacity="1.000000" stroke="none" 
	d="
M142.990997,100.106789 
	C142.762817,122.266121 122.786148,135.025833 104.548462,125.132462 
	C93.579575,119.182182 88.423691,105.374702 92.495430,92.854347 
	C96.493454,80.560654 108.028381,73.139267 120.580925,74.784584 
	C132.891754,76.398216 142.147049,86.679581 142.990997,100.106789 
M116.597679,117.278404 
	C124.799858,118.321136 132.284515,110.014580 132.295212,102.086990 
	C132.306534,93.699944 126.933067,86.778778 119.266350,85.847366 
	C110.806000,84.819534 103.298927,90.415482 102.032883,98.693604 
	C100.598656,108.071320 106.169434,115.615974 116.597679,117.278404 
z"/>
<path fill="#F8F7F8" opacity="1.000000" stroke="none" 
	d="
M150.882614,110.998611 
	C150.883896,98.557831 150.883896,86.616631 150.883896,74.634781 
	C160.176437,74.634781 169.151962,73.922493 177.962402,74.823853 
	C187.887527,75.839249 193.410995,83.329567 193.047440,93.124077 
	C192.711899,102.163651 186.129349,109.105721 176.562149,109.932320 
	C171.619339,110.359367 166.609207,110.007385 160.863159,110.007385 
	C160.863159,113.262901 160.863159,116.160019 160.863159,119.057129 
	C160.863159,122.009483 160.863159,124.961830 160.863159,128.134140 
	C157.353271,128.134140 154.258148,128.134140 150.881332,128.134140 
	C150.881332,122.448349 150.881332,116.973267 150.882614,110.998611 
M169.319824,84.108727 
	C166.561829,84.108727 163.803833,84.108727 161.123505,84.108727 
	C161.123505,89.902771 161.123505,95.011612 161.123505,100.620140 
	C166.365875,100.371368 171.364685,100.482323 176.250504,99.792747 
	C180.198425,99.235558 182.901031,96.649345 182.854553,92.280426 
	C182.811478,88.232292 180.446198,85.831894 176.644333,84.942192 
	C174.559235,84.454254 172.378723,84.374153 169.319824,84.108727 
z"/>
<path fill="#599FE1" opacity="1.000000" stroke="none" 
	d="
M124.004074,141.029968 
	C120.563911,138.876480 114.816948,138.794159 116.135544,131.911072 
	C132.555420,131.911072 148.931824,131.911072 165.337082,131.911072 
	C166.666946,136.650513 166.666946,136.650513 158.259750,140.574051 
	C146.584549,136.668045 135.111389,136.379822 123.398018,137.779495 
	C123.587151,138.793869 123.795609,139.911911 124.004074,141.029968 
z"/>
<path fill="#D75E93" opacity="1.000000" stroke="none" 
	d="
M132.964020,60.135551 
	C135.576996,61.471687 138.189972,62.807823 140.822678,64.154045 
	C134.307404,69.769463 127.236740,71.882378 118.940338,71.358055 
	C109.853554,70.783791 100.702446,71.227364 91.098343,71.227364 
	C91.632240,67.968788 88.795029,64.234428 94.518738,62.996269 
	C95.056252,64.175713 94.995018,65.168404 94.933792,66.161102 
	C95.659950,66.081337 96.393173,66.041328 97.110809,65.913681 
	C98.686134,65.633476 100.250542,65.063637 101.824745,65.044189 
	C109.349937,64.951195 116.876923,65.002533 124.403267,65.002563 
	C128.099792,65.002579 131.796310,65.002571 135.854248,65.002571 
	C134.891983,63.382172 133.928009,61.758862 132.964020,60.135551 
z"/>
<path fill="#D85E93" opacity="1.000000" stroke="none" 
	d="
M184.998169,60.999004 
	C190.019714,62.212688 192.341599,65.137390 190.668884,71.228004 
	C187.580551,71.228004 184.180664,71.227379 180.780777,71.228142 
	C173.641296,71.229744 166.470169,71.635567 159.374512,71.078949 
	C155.284546,70.758118 151.316574,68.882111 147.321793,67.113663 
	C148.404129,66.133240 149.541306,65.265785 150.499786,65.431534 
	C159.962799,67.067963 169.214127,64.964142 178.547424,64.178711 
	C180.023392,64.054504 181.574036,65.389717 183.156235,65.786888 
	C184.582794,66.144997 186.099960,66.142128 188.618393,66.408653 
	C186.756805,63.626888 185.877487,62.312946 184.998169,60.999004 
z"/>
<path fill="#E15A87" opacity="1.000000" stroke="none" 
	d="
M132.764435,59.869041 
	C133.928009,61.758862 134.891983,63.382172 135.854248,65.002571 
	C131.796310,65.002571 128.099792,65.002579 124.403267,65.002563 
	C116.876923,65.002533 109.349937,64.951195 101.824745,65.044189 
	C100.250542,65.063637 98.686134,65.633476 97.110809,65.913681 
	C96.393173,66.041328 95.659950,66.081337 94.933792,66.161102 
	C94.995018,65.168404 95.056252,64.175713 94.915421,63.026600 
	C98.243500,60.582550 101.773643,58.294918 105.607437,56.287666 
	C105.029404,57.772129 104.147720,58.976215 103.263748,60.183422 
	C109.855507,60.453457 115.980713,60.778397 122.109619,60.880405 
	C123.096405,60.896832 124.059875,59.810783 125.104980,59.427608 
	C126.577827,58.887592 128.116806,58.527927 129.627518,58.091152 
	C130.606628,58.594948 131.585724,59.098743 132.764435,59.869041 
z"/>
<path fill="#E25988" opacity="1.000000" stroke="none" 
	d="
M184.999084,60.999580 
	C185.877487,62.312946 186.756805,63.626888 188.618393,66.408653 
	C186.099960,66.142128 184.582794,66.144997 183.156235,65.786888 
	C181.574036,65.389717 180.023392,64.054504 178.547424,64.178711 
	C169.214127,64.964142 159.962799,67.067963 150.499786,65.431534 
	C149.541306,65.265785 148.404129,66.133240 147.139343,66.813065 
	C146.392960,66.914818 145.857101,66.724731 145.291382,65.970657 
	C145.489960,64.240494 145.718399,63.074318 145.946838,61.908142 
	C145.946838,61.908142 145.984680,61.988140 146.275482,61.982929 
	C147.375641,61.474545 148.185028,60.971367 148.994400,60.468193 
	C149.400681,60.283478 149.806976,60.098766 150.818161,60.166237 
	C157.724426,60.521942 164.025665,60.679756 170.327209,60.691547 
	C171.941681,60.694565 173.697815,60.545044 175.127792,59.893024 
	C176.288589,59.363747 177.058350,57.976856 178.001526,56.970314 
	C178.545410,57.198334 179.089310,57.426350 179.980484,58.103859 
	C180.825745,58.714256 181.323700,58.875164 181.821671,59.036072 
	C182.143341,59.135277 182.465027,59.234482 183.049072,59.836861 
	C183.875046,60.560532 184.438644,60.781036 185.002243,61.001541 
	C185.002243,61.001537 185.000000,61.000153 184.999084,60.999580 
z"/>
<path fill="#46A7E6" opacity="1.000000" stroke="none" 
	d="
M124.093056,141.132141 
	C123.795609,139.911911 123.587151,138.793869 123.398018,137.779495 
	C135.111389,136.379822 146.584549,136.668045 157.903046,140.610748 
	C157.994370,140.993484 157.999893,140.999985 157.683044,141.021637 
	C156.571609,141.656326 155.777023,142.269363 154.982437,142.882416 
	C153.887665,143.590256 152.792908,144.298096 151.208160,144.742355 
	C147.892288,142.391266 133.911179,142.201401 131.175461,144.246307 
	C130.952774,144.412750 130.931229,144.848282 130.816223,145.158768 
	C129.306396,144.335464 127.796577,143.512161 125.952812,142.138580 
	C125.223366,141.435699 124.827850,141.283112 124.432343,141.130508 
	C124.432343,141.130508 124.182037,141.234299 124.093056,141.132141 
z"/>
<path fill="#DF5677" opacity="1.000000" stroke="none" 
	d="
M129.438812,57.832153 
	C128.116806,58.527927 126.577827,58.887592 125.104980,59.427608 
	C124.059875,59.810783 123.096405,60.896832 122.109619,60.880405 
	C115.980713,60.778397 109.855507,60.453457 103.263748,60.183422 
	C104.147720,58.976215 105.029404,57.772129 105.958893,56.218544 
	C108.655670,54.188732 111.207855,52.312912 114.003464,50.928745 
	C115.054108,50.408550 116.872948,50.631428 117.990845,51.202324 
	C121.827759,53.161800 125.509331,55.425461 129.438812,57.832153 
z"/>
<path fill="#DE577A" opacity="1.000000" stroke="none" 
	d="
M177.812256,56.694042 
	C177.058350,57.976856 176.288589,59.363747 175.127792,59.893024 
	C173.697815,60.545044 171.941681,60.694565 170.327209,60.691547 
	C164.025665,60.679756 157.724426,60.521942 151.154907,60.101883 
	C152.823837,58.302559 154.760956,56.819771 157.419891,55.204086 
	C161.560257,55.632599 164.978760,56.194008 168.699661,56.805077 
	C168.822769,54.873962 168.913818,53.445549 169.004883,52.017139 
	C171.877579,53.484016 174.750290,54.950893 177.812256,56.694042 
z"/>
<path fill="#39A9DD" opacity="1.000000" stroke="none" 
	d="
M130.827866,145.139648 
	C130.931229,144.848282 130.952774,144.412750 131.175461,144.246307 
	C133.911179,142.201401 147.892288,142.391266 150.881805,144.809845 
	C150.401306,145.626114 149.728470,146.077820 149.117508,146.601685 
	C143.564499,151.363068 138.099930,151.272644 132.546936,145.925079 
	C131.862549,145.391342 131.340744,145.267151 130.818954,145.142960 
	C130.818954,145.142960 130.839508,145.120514 130.827866,145.139648 
z"/>
<path fill="#D2526D" opacity="1.000000" stroke="none" 
	d="
M168.741089,51.941551 
	C168.913818,53.445549 168.822769,54.873962 168.699661,56.805077 
	C164.978760,56.194008 161.560257,55.632599 157.753052,55.088364 
	C160.715836,53.674713 164.067322,52.243885 167.156250,51.288445 
	C166.906860,51.964024 166.920044,52.164211 166.933228,52.364403 
	C167.109268,52.144726 167.285309,51.925045 167.461349,51.705360 
	C167.800003,51.758892 168.138641,51.812428 168.741089,51.941551 
z"/>
<path fill="#D85E93" opacity="1.000000" stroke="none" 
	d="
M145.606216,61.961628 
	C145.718399,63.074318 145.489960,64.240494 145.117828,65.739685 
	C143.997543,65.574371 143.020950,65.076035 141.491440,64.295555 
	C143.088333,63.330666 144.176956,62.672886 145.606216,61.961628 
z"/>
<path fill="#D85E93" opacity="1.000000" stroke="none" 
	d="
M148.707657,60.551357 
	C148.185028,60.971367 147.375641,61.474545 146.238068,61.959305 
	C146.746872,61.505436 147.583893,61.069981 148.707657,60.551357 
z"/>
<path fill="#599FE1" opacity="1.000000" stroke="none" 
	d="
M155.289169,142.857544 
	C155.777023,142.269363 156.571609,141.656326 157.679810,141.018616 
	C157.194260,141.606873 156.395081,142.219788 155.289169,142.857544 
z"/>
<path fill="#DE577A" opacity="1.000000" stroke="none" 
	d="
M181.678619,58.805458 
	C181.323700,58.875164 180.825745,58.714256 180.168640,58.339508 
	C180.518204,58.275394 181.026886,58.425121 181.678619,58.805458 
z"/>
<path fill="#D85E93" opacity="1.000000" stroke="none" 
	d="
M184.842972,60.746086 
	C184.438644,60.781036 183.875046,60.560532 183.183350,60.054619 
	C183.598083,60.009678 184.140884,60.250156 184.842972,60.746086 
z"/>
<path fill="#46A7E6" opacity="1.000000" stroke="none" 
	d="
M130.949524,145.413147 
	C131.340744,145.267151 131.862549,145.391342 132.297470,145.710068 
	C131.833771,145.830856 131.456924,145.757095 130.949524,145.413147 
z"/>
<path fill="#599FE1" opacity="1.000000" stroke="none" 
	d="
M124.601181,141.406555 
	C124.827850,141.283112 125.223366,141.435699 125.782913,141.866211 
	C125.554642,141.990280 125.162331,141.836441 124.601181,141.406555 
z"/>
<path fill="#030304" opacity="1.000000" stroke="none" 
	d="
M116.167419,117.266052 
	C106.169434,115.615974 100.598656,108.071320 102.032883,98.693604 
	C103.298927,90.415482 110.806000,84.819534 119.266350,85.847366 
	C126.933067,86.778778 132.306534,93.699944 132.295212,102.086990 
	C132.284515,110.014580 124.799858,118.321136 116.167419,117.266052 
z"/>
<path fill="#040405" opacity="1.000000" stroke="none" 
	d="
M169.780518,84.109436 
	C172.378723,84.374153 174.559235,84.454254 176.644333,84.942192 
	C180.446198,85.831894 182.811478,88.232292 182.854553,92.280426 
	C182.901031,96.649345 180.198425,99.235558 176.250504,99.792747 
	C171.364685,100.482323 166.365875,100.371368 161.123505,100.620140 
	C161.123505,95.011612 161.123505,89.902771 161.123505,84.108727 
	C163.803833,84.108727 166.561829,84.108727 169.780518,84.109436 
z"/>
<path fill="#DE577A" opacity="1.000000" stroke="none" 
	d="
M167.409576,51.667175 
	C167.285309,51.925045 167.109268,52.144726 166.933228,52.364403 
	C166.920044,52.164211 166.906860,51.964024 167.086548,51.645370 
	C167.279419,51.526913 167.357788,51.628986 167.409576,51.667175 
z"/>
</svg>