<svg version="1.1" id="Layer_1" xmlns="http://www.w3.org/2000/svg" xmlns:xlink="http://www.w3.org/1999/xlink" x="0px" y="0px"
	 width="100%" viewBox="0 0 272 192" enable-background="new 0 0 272 192" xml:space="preserve">
<path fill="#000000" opacity="1.000000" stroke="none" 
	d="
M147.000000,193.000000 
	C98.000000,193.000000 49.500008,193.000000 1.000006,193.000000 
	C1.000004,129.000000 1.000004,65.000015 1.000002,1.000015 
	C91.666656,1.000010 182.333313,1.000010 273.000000,1.000005 
	C273.000000,64.999985 273.000000,128.999969 273.000000,192.999969 
	C231.166672,193.000000 189.333328,193.000000 147.000000,193.000000 
M113.087540,127.578888 
	C126.714989,128.270737 135.325119,123.369385 140.388184,112.037895 
	C145.774918,99.982025 141.119339,85.547028 129.615677,78.636848 
	C118.999496,72.259781 105.168327,74.815063 97.412727,84.824135 
	C85.211754,100.570229 93.508385,123.469498 113.087540,127.578888 
M192.187943,88.391090 
	C189.568695,79.877510 184.839874,75.767639 176.161514,75.191589 
	C169.537994,74.751938 162.877945,74.867714 156.234436,74.722260 
	C152.635254,74.643471 151.292801,76.390076 151.321854,79.956902 
	C151.436966,94.082146 151.416840,108.209038 151.347626,122.334831 
	C151.331573,125.611534 151.949829,127.740540 155.943069,127.764549 
	C160.043198,127.789215 160.365555,125.501495 160.450851,122.302155 
	C160.782578,109.858406 160.848618,109.860176 173.554810,109.646683 
	C185.963882,109.438202 193.239029,101.534294 192.187943,88.391090 
M125.611435,132.268143 
	C124.446190,132.271988 123.274300,132.198288 122.117195,132.297287 
	C120.223625,132.459305 117.699120,131.618179 116.913551,134.104065 
	C116.113205,136.636658 118.608200,137.481598 120.210205,138.443359 
	C125.915428,141.868469 131.711807,145.142075 137.483398,148.456100 
	C139.620728,149.683319 141.762009,150.096832 144.079788,148.739365 
	C150.109833,145.207703 156.218674,141.809845 162.226074,138.240768 
	C163.765915,137.325912 165.535812,136.099884 164.832642,133.902634 
	C164.168137,131.826279 162.116837,132.316528 160.536163,132.309509 
	C149.216766,132.259247 137.897079,132.274353 125.611435,132.268143 
M185.337204,63.336220 
	C180.696228,57.543694 173.743652,55.192295 167.658951,51.563976 
	C166.948563,51.140362 165.579514,51.242359 164.781082,51.637157 
	C158.520218,54.732929 152.412781,58.117943 146.696457,62.150379 
	C145.356323,63.095745 144.669144,64.264023 146.153549,65.866570 
	C149.836731,69.842880 157.173203,70.821655 162.008423,67.867493 
	C163.786057,66.781418 165.863831,65.816521 167.581543,67.345901 
	C171.876495,71.169930 176.989243,69.902931 181.854309,69.995834 
	C186.096909,70.076866 187.761307,68.113609 185.337204,63.336220 
M110.193291,69.891953 
	C111.434891,69.863853 112.206284,69.152542 113.142265,68.361671 
	C115.923180,66.011932 119.013535,63.056648 121.009758,69.222984 
	C121.315735,70.168159 122.429573,69.854713 123.211342,69.999382 
	C127.179115,70.733658 130.774796,69.755035 134.192093,67.732353 
	C138.078888,65.431770 138.276260,63.721855 134.466187,61.310066 
	C130.252319,58.642673 125.723434,56.470364 121.528664,53.775879 
	C112.903580,48.235615 107.740967,55.850353 101.465408,58.943607 
	C96.257988,61.510384 100.938210,64.877579 101.157700,67.891182 
	C101.203232,68.516434 100.844589,69.205582 101.889351,69.923302 
	C104.186768,69.923302 106.836273,69.923302 110.193291,69.891953 
z"/>
<path fill="#000000" opacity="1.000000" stroke="none" 
	d="
M130.819351,109.510132 
	C124.806595,118.037849 116.500931,120.282654 109.091782,115.658134 
	C101.562813,110.958817 99.158157,100.694748 103.725052,92.750595 
	C107.668648,85.890678 116.504082,83.156128 123.705223,86.566757 
	C131.839233,90.419228 134.904922,99.899574 130.819351,109.510132 
z"/>
<path fill="#000000" opacity="1.000000" stroke="none" 
	d="
M161.762161,84.077469 
	C167.121704,83.655441 172.091904,83.069962 177.001877,84.446083 
	C181.018829,85.571922 183.246552,88.151802 183.284180,92.338112 
	C183.322876,96.645065 180.749802,99.134972 176.862885,100.120415 
	C171.705368,101.427994 164.995911,103.449913 161.634583,99.909225 
	C158.206039,96.297745 160.140182,89.596077 161.762161,84.077469 
z"/>
</svg>